<svg width="405" height="105" viewBox="0 0 405 105" fill="none" xmlns="http://www.w3.org/2000/svg">
<path d="M87.4645 52.5087C91.8436 44.5704 94.8573 36.4921 96.8221 30.1274C99.1198 22.6961 99.9856 17.5554 99.9856 17.5554H85.3999V17.975C85.3999 19.3564 85.3666 20.7202 85.2667 22.0491C84.8671 29.8301 83.4185 36.7544 81.3205 42.8043C77.0913 36.1249 68.2333 27.6619 63.105 23.0283C61.9894 21.9792 60.8572 20.9825 59.7083 20.0208C59.4253 19.776 59.2255 19.6012 59.2255 19.6012C64.9865 17.3805 71.5634 15.8593 78.9895 15.4571C80.3881 15.3522 81.82 15.3172 83.2686 15.3172V0C83.2686 0 78.6065 0.874272 71.7632 3.16486C65.6525 5.22814 57.7769 8.42798 50.0011 13.149C42.4419 8.55037 34.7494 5.38551 28.6886 3.32223C21.6122 0.909242 16.717 0 16.717 0V15.3172H17.1166C18.432 15.3172 19.7307 15.3522 20.9962 15.4571C28.4056 15.8768 34.9991 17.398 40.7602 19.6012C40.7602 19.6012 40.7602 19.6012 40.7435 19.6187H40.7602C35.3821 22.8185 26.7072 32.9076 21.9952 38.6778C21.0128 39.8143 20.0804 40.9858 19.1813 42.1749C18.8816 42.5595 18.6984 42.8043 18.6817 42.8043C16.5671 36.7544 15.1186 29.8476 14.7356 22.0491C14.6357 20.7202 14.6024 19.3564 14.6024 17.975V17.5554H0C0 17.5554 0.865821 22.6961 3.16358 30.1274C5.12832 36.4921 8.12539 44.5529 12.5211 52.5087C8.02549 60.6744 4.97847 68.9276 3.01372 75.3622C0.83252 82.5312 0 87.4446 0 87.4446H14.5857C14.5857 85.9234 14.619 84.4197 14.719 82.9509C15.1186 75.1699 16.5671 68.2456 18.6651 62.1957C18.6651 62.1957 27.1901 74.453 40.7435 85.3988C34.9825 87.6195 28.4056 89.1407 20.9795 89.5429C19.7141 89.6478 18.4153 89.6828 17.1 89.6828H16.7003V105C16.7003 105 21.5956 104.091 28.672 101.678C34.7327 99.6145 42.4086 96.4671 49.9845 91.851C57.7602 96.572 65.6192 99.7719 71.7466 101.835C78.5732 104.126 83.252 105 83.252 105V89.6828C81.8034 89.6828 80.3715 89.6478 78.9728 89.5429C71.5634 89.1232 64.9699 87.602 59.2088 85.3988C63.7877 82.2515 70.7309 74.6278 75.6261 68.98C77.6741 66.8293 79.5723 64.5737 81.3039 62.1957C83.4185 68.2456 84.8671 75.1699 85.25 82.9509C85.3499 84.4197 85.3832 85.9234 85.3832 87.4446H99.969C99.969 87.4446 99.1365 82.5487 96.9553 75.3622C94.9905 68.945 91.9435 60.6744 87.4479 52.5087H87.4645ZM18.6651 42.8043H18.6817C18.6817 42.8043 18.6817 42.8043 18.6651 42.8043ZM49.9845 80.9226C46.6544 78.9117 43.7239 76.6736 41.1764 74.348C40.8767 74.0858 40.5937 73.841 40.3106 73.5612C36.531 70.1865 33.2841 66.637 30.6867 63.4546C28.0393 60.552 25.4751 57.055 23.194 52.9809C23.0775 52.7885 23.0108 52.6486 22.9609 52.5787L22.9276 52.5262C22.9276 52.5262 22.9609 52.4738 23.0442 52.3339C23.1607 52.1416 23.3439 51.7918 23.6269 51.3372C25.2753 48.4172 27.1068 45.8118 29.0216 43.5037C29.1049 43.3988 29.1715 43.3114 29.2547 43.2065C32.3018 39.2898 36.4477 34.6561 41.576 30.2848C41.6093 30.2498 41.6593 30.2323 41.6926 30.1798C44.1069 28.0291 46.8709 25.9659 49.9678 24.0949C49.9678 24.0949 49.9845 24.0949 50.0011 24.1124C50.534 24.4271 51.0335 24.7419 51.533 25.0741C52.0158 25.3888 52.6319 25.8085 53.3146 26.2981C53.5643 26.438 53.7808 26.6128 54.0305 26.8052C54.7798 27.3122 55.5124 27.8718 56.2117 28.4663C56.3616 28.6062 56.5448 28.746 56.7279 28.8859C61.057 32.3655 66.868 37.7685 72.2294 45.1124C72.3793 45.3222 72.5458 45.567 72.7123 45.7769C74.2108 47.8052 75.6594 50.0433 77.0081 52.4913C76.9748 52.5437 76.9248 52.6311 76.8915 52.6836C76.775 52.8759 76.6584 53.0858 76.5585 53.2781C76.2588 53.7852 75.8259 54.5371 75.2431 55.4638C74.3607 56.9326 73.4116 58.2964 72.4625 59.5554C72.4292 59.5904 72.3793 59.6603 72.346 59.6953C67.8837 65.8851 60.2744 74.7152 49.9678 80.8876L49.9845 80.9226Z" fill="#CCF32F"/>
<path d="M184.015 4.80709H160.687C153.871 29.2546 147.032 53.7526 140.144 78.4532C145.976 78.4532 151.567 78.4532 157.135 78.4026C157.519 78.4026 158.119 77.7699 158.239 77.3143C159.103 74.0749 159.799 70.8102 160.639 67.5708C161.383 64.6857 163.303 62.8888 166.087 62.8129C171.655 62.6863 177.247 62.7876 182.887 62.7876C183.007 63.2178 183.151 63.6227 183.247 64.0277C184.351 68.4566 185.43 72.9108 186.558 77.3396C186.678 77.7699 187.182 78.4026 187.518 78.4026C193.134 78.4785 198.774 78.4532 204.558 78.4532C197.694 53.8286 190.854 29.3305 184.015 4.80709ZM172.015 50.8928C166.999 50.8928 165.199 52.2089 163.327 57.1692C163.279 57.2958 163.135 57.397 162.751 57.8272C165.943 44.8949 169.015 32.3927 172.087 19.8906C172.231 19.8653 172.375 19.84 172.519 19.8147C175.135 30.0897 177.751 40.39 180.415 50.8928H171.991H172.015Z" fill="#CCF32F"/>
<path d="M288.219 41.5544C286.179 31.8109 279.94 24.2438 268.324 24.9524C261.22 25.3826 255.892 29.4066 253.564 36.4675C253.444 36.8218 253.228 37.1508 253.084 37.5052H252.604C252.244 33.5571 251.884 29.6597 251.5 25.7117H235.973V100.193H252.556V75.1381C254.932 76.1504 257.068 77.2892 259.324 77.9979C271.492 81.8194 282.1 76.8843 286.707 65.192C289.731 57.549 289.899 49.6023 288.219 41.605V41.5544ZM268.468 65.3692C264.892 70.4308 258.676 71.924 253.372 68.9882C253.036 68.7858 252.604 68.3302 252.604 67.9759C252.748 61.2187 251.932 54.4109 253.324 47.7043C253.9 44.971 254.956 42.4402 256.9 40.4156C260.596 36.5941 267.172 37.4798 269.788 42.1871C271.204 44.7432 271.9 48.1851 271.948 52.8671C272.02 57.4225 271.084 61.6742 268.468 65.3692Z" fill="#CCF32F"/>
<path d="M347.738 76.4788V78.3516H330.986V76.6307C330.986 68.684 331.082 60.712 330.938 52.7653C330.866 49.8042 330.434 46.8179 329.738 43.9328C328.922 40.4909 326.546 38.5928 323.186 38.1626C319.802 37.7323 317.115 38.9724 315.219 42.0094C313.275 45.1476 312.507 48.6907 312.435 52.3603C312.291 60.3576 312.315 68.3803 312.291 76.4029C312.291 77.0356 312.291 77.6683 312.291 78.4275H295.683V4.83202H312.291V36.9984C312.291 36.9984 312.531 37.0743 312.627 37.125C312.795 36.8719 313.011 36.6441 313.107 36.3657C315.483 28.8746 320.762 25.5086 327.938 25.0278C330.098 24.8759 332.33 25.0278 334.442 25.4327C341.762 26.8752 346.13 32.2405 347.114 40.9464C347.474 44.1859 347.666 47.4253 347.714 50.69C347.786 59.2947 347.738 67.8994 347.738 76.4788Z" fill="#CCF32F"/>
<path d="M404.112 56.9158C404.184 52.006 404.352 47.0963 404.16 42.1865C403.848 34.3664 399.864 29.2542 392.832 26.8752C386.281 24.6735 379.561 24.4963 372.793 25.4074C369.265 25.8882 365.785 26.6475 362.593 28.3937C361.729 28.8746 361.369 29.4313 361.393 30.4943C361.465 34.1892 361.393 37.8589 361.417 41.5539C361.417 41.9841 361.489 42.4396 361.513 42.8192C363.697 41.8322 365.689 40.7693 367.777 40.0607C369.889 39.3521 372.097 38.8712 374.305 38.5928C378.073 38.112 381.817 38.3144 385.345 40.0354C388.273 41.4779 389.16 43.9328 388.081 47.2988C387.673 47.071 387.265 46.8685 386.881 46.6407C378.913 42.389 367.585 43.7556 360.937 49.7536C355.561 54.6127 353.473 62.5341 355.873 69.5444C357.985 75.7196 362.713 78.1491 368.521 78.959C377.161 80.1738 385.489 74.7072 388.033 66.0266C388.129 65.6723 388.32 65.3433 388.464 64.989C388.824 65.5458 388.872 66.0266 388.872 66.5328C388.968 68.9877 388.992 71.4425 389.184 73.8974C389.52 78.301 389.736 78.4781 393.84 78.4781H405C403.848 71.2148 403.992 64.0779 404.088 56.9158H404.112ZM378.313 65.8748C376.777 65.3686 375.145 65.0902 373.753 64.3057C369.793 62.0786 369.457 56.3843 373.009 53.4486C376.753 50.361 383.497 50.3104 387.313 53.2967C388.129 53.9294 388.441 54.6634 388.417 55.7263C388.225 61.37 384.025 65.5205 378.313 65.8495V65.8748Z" fill="#CCF32F"/>
<path d="M228.365 4.80709H211.902V78.352H228.365V4.80709Z" fill="#CCF32F"/>
</svg>
