<svg width="71" height="73" viewBox="0 0 71 73" fill="none" xmlns="http://www.w3.org/2000/svg">
<path d="M68.6365 34.1898H64.4539C63.3334 19.5592 51.9814 7.93133 37.8656 6.77584V2.38695C37.8656 1.07763 36.8198 0 35.5505 0C34.2806 0 33.2354 1.07826 33.2354 2.38695V6.69942C19.0454 7.8547 7.76778 19.5592 6.64708 34.1133L2.31507 34.1127C1.04518 34.1127 0 35.191 0 36.4997C0 37.809 1.04579 38.8867 2.31507 38.8867H6.49766C7.61815 53.5172 18.9701 65.1451 33.086 66.3006V70.613C33.086 71.9224 34.1318 73 35.4011 73C36.6709 73 37.7161 71.9217 37.7161 70.613V66.3006C51.9061 65.1453 63.1838 53.4408 64.3045 38.8867H68.4871C69.757 38.8867 70.8021 37.8084 70.8021 36.4997C70.8021 35.191 69.9057 34.1898 68.6365 34.1898ZM59.7491 34.1898H54.1478C53.102 25.3343 46.3062 18.4041 37.7169 17.2486V11.4735C49.4424 12.7058 58.6291 22.1772 59.7483 34.189L59.7491 34.1898ZM35.4762 49.36C28.6797 49.36 23.0785 43.6619 23.0785 36.5773C23.0785 29.4928 28.6797 23.7946 35.4762 23.7946C42.2727 23.7946 47.874 29.4928 47.874 36.5773C47.874 43.6613 42.2721 49.36 35.4762 49.36ZM33.1606 11.5513V17.3264C24.5718 18.4047 17.8503 25.4115 16.7296 34.2676H11.1284C12.3236 22.1774 21.5098 12.706 33.1598 11.552L33.1606 11.5513ZM11.2032 38.9652H16.8045C17.8503 47.8206 24.6461 54.7508 33.2354 55.9063V61.6815C21.5093 60.4492 12.3232 50.9777 11.204 38.966L11.2032 38.9652ZM37.7916 61.6043V55.8291C46.3803 54.7509 53.1018 47.744 54.2225 38.888H59.8238C58.6286 50.9776 49.4424 60.4496 37.7923 61.6035L37.7916 61.6043Z" fill="#034001"/>
<path d="M39.9579 36.5772C39.9579 39.1283 37.9515 41.1972 35.477 41.1972C33.0022 41.1972 30.9958 39.1284 30.9958 36.5772C30.9958 34.0255 33.0022 31.9567 35.477 31.9567C37.9513 31.9567 39.9579 34.0255 39.9579 36.5772Z" fill="#034001"/>
</svg>
