<svg width="56" height="56" viewBox="0 0 56 56" fill="none" xmlns="http://www.w3.org/2000/svg">
<path d="M4.24616 4.21161H12.1316V0.000358166H0V13.4919H4.24582L4.24616 4.21161Z" fill="#034001"/>
<path d="M43.8688 0.000114225V4.21136H51.7546V13.4916H56V0L43.8688 0.000114225Z" fill="#034001"/>
<path d="M4.24616 42.5084H0.000341117V56H12.1319V51.7888H4.2465L4.24616 42.5084Z" fill="#034001"/>
<path d="M51.7538 51.7886H43.868V55.9999H55.9995V42.5083H51.7542L51.7538 51.7886Z" fill="#034001"/>
<path d="M47.8567 37.7549C51.5482 33.9548 52.7994 30.1663 52.8507 30.0064L52.9708 29.6351L52.845 29.2696V29.2638C52.4108 26.9094 48.6963 10.7431 28.828 10.7431C9.39438 10.7431 4.43333 24.863 3.4511 28.6287C3.29115 28.9485 3.21096 29.143 3.19413 29.1772L3.01691 29.5888L3.15957 30.0114C3.21096 30.1714 4.51972 33.9542 8.25684 37.7485C11.6909 41.234 17.9141 45.3885 28.0682 45.3885C38.2735 45.4 44.462 41.2405 47.8567 37.7549ZM39.5823 26.8633C39.491 27.4632 39.3479 28.052 39.1707 28.6179L34.6334 26.8633H39.5823ZM38.2509 30.7834C37.9425 31.3435 37.5996 31.8747 37.2111 32.3723L33.9941 29.1379L38.2509 30.7834ZM35.5881 34.0692C35.1708 34.4236 34.7308 34.7492 34.2682 35.035L32.5882 31.052L35.5881 34.0692ZM29.9879 31.5149C30.0624 31.4976 30.1306 31.4865 30.205 31.4693L32.142 36.0638C31.4504 36.3097 30.7305 36.4754 29.988 36.5724L29.9879 31.5149ZM20.8163 16.8687C23.5022 15.023 26.7479 15.08 28.0678 17.0003C29.3877 18.9205 28.2792 21.9718 25.5934 23.8233C22.9076 25.669 19.6618 25.612 18.3419 23.6917C17.0221 21.7715 18.131 18.7144 20.8163 16.8687ZM27.6393 32.2918V36.6289C27.1192 36.5832 26.6106 36.4973 26.1135 36.3777L27.6393 32.2918ZM25.5078 31.2746L23.9022 35.5776C23.3537 35.3033 22.822 34.9892 22.325 34.629L25.5078 31.2746ZM20.5709 33.0575C20.1079 32.5488 19.6852 31.9946 19.314 31.4061L24.0684 29.206C24.0914 29.2343 24.114 29.2689 24.137 29.2973L20.5709 33.0575ZM23.068 26.8631C23.0795 26.9318 23.091 26.9947 23.1079 27.0576L18.2679 29.2977C17.9707 28.5206 17.7536 27.7036 17.6224 26.8578H23.068L23.068 26.8631ZM28.0678 43.0462C11.8678 43.0462 6.51323 32.0403 5.55368 29.6862C6.30244 28.1378 9.17647 22.8175 14.9995 19.0636C14.3079 20.8579 13.9482 22.8406 13.9482 24.9548C13.9482 33.3662 20.5253 40.2055 28.6056 40.2055C36.6913 40.2055 43.2631 33.3656 43.2631 24.9548C43.2631 22.8919 42.863 20.9261 42.0974 19.1149C47.5372 22.8751 49.9031 28.1666 50.4804 29.6464C49.6058 31.8116 44.3254 43.0462 28.0678 43.0462Z" fill="#034001"/>
</svg>
